<?xml version="1.0" encoding="iso-8859-1"?>
<!-- Generator: Adobe Illustrator 19.0.0, SVG Export Plug-In . SVG Version: 6.00 Build 0)  -->
<svg version="1.1" id="Layer_1" xmlns="http://www.w3.org/2000/svg" xmlns:xlink="http://www.w3.org/1999/xlink" x="0px" y="0px"
	 viewBox="0 0 512 512" style="enable-background:new 0 0 512 512;" xml:space="preserve">
<g>
	<path style="fill:#FCDE76;" d="M504,136c-13.233,0-24-10.767-24-24c0-4.418-3.582-8-8-8s-8,3.582-8,8c0,13.233-10.767,24-24,24
		c-4.418,0-8,3.582-8,8s3.582,8,8,8c13.233,0,24,10.767,24,24c0,4.418,3.582,8,8,8s8-3.582,8-8c0-13.233,10.767-24,24-24
		c4.418,0,8-3.582,8-8S508.418,136,504,136z"/>
	<path style="fill:#FCDE76;" d="M72,136c-13.233,0-24-10.767-24-24c0-4.418-3.582-8-8-8s-8,3.582-8,8c0,13.233-10.767,24-24,24
		c-4.418,0-8,3.582-8,8s3.582,8,8,8c13.233,0,24,10.767,24,24c0,4.418,3.582,8,8,8s8-3.582,8-8c0-13.233,10.767-24,24-24
		c4.418,0,8-3.582,8-8S76.418,136,72,136z"/>
	<path style="fill:#FCDE76;" d="M296,40c-17.645,0-32-14.355-32-32c0-4.418-3.582-8-8-8s-8,3.582-8,8c0,17.645-14.355,32-32,32
		c-4.418,0-8,3.582-8,8s3.582,8,8,8c17.645,0,32,14.355,32,32c0,4.418,3.582,8,8,8s8-3.582,8-8c0-17.645,14.355-32,32-32
		c4.418,0,8-3.582,8-8S300.418,40,296,40z"/>
</g>
<g>
	<path style="fill:#E6608D;" d="M495,232h-40c-3.671,0-6.871,2.498-7.761,6.06l-8,32c-0.598,2.39-0.061,4.922,1.455,6.863
		C442.21,278.865,444.536,280,447,280h48c4.418,0,8-3.582,8-8v-32C503,235.582,499.418,232,495,232z"/>
	<path style="fill:#E6608D;" d="M62.761,238.06c-0.89-3.562-4.09-6.06-7.761-6.06H15c-4.418,0-8,3.582-8,8v32c0,4.418,3.582,8,8,8
		h48c2.463,0,4.79-1.135,6.306-3.077c1.516-1.941,2.053-4.474,1.456-6.863L62.761,238.06z"/>
	<path style="fill:#E6608D;" d="M479.549,323.006L447,280l-40.921-117.313C400.445,146.725,385.287,136,368.359,136H141.641
		c-16.927,0-32.086,10.725-37.72,26.688L63,280l-32.549,43.005C25.576,329.829,23,337.868,23,346.255V440c0,4.418,3.582,8,8,8h448
		c4.418,0,8-3.582,8-8v-93.745C487,337.868,484.423,329.828,479.549,323.006z"/>
</g>
<path style="fill:#D4506F;" d="M368.359,136H141.641c-16.927,0-32.086,10.725-37.72,26.688L63,280h384l-40.921-117.313
	C400.445,146.725,385.287,136,368.359,136z"/>
<path style="fill:#E6608D;" d="M93.614,272c-5.52,0-9.381-5.458-7.544-10.663l32.938-93.325c3.38-9.578,12.475-16.013,22.632-16.013
	h226.719c10.156,0,19.252,6.435,22.632,16.012l32.938,93.326c1.837,5.205-2.024,10.663-7.544,10.663H93.614z"/>
<path style="fill:#878493;" d="M412.622,253.338l-29.175-82.662C381.194,164.29,375.131,160,368.359,160H141.641
	c-6.771,0-12.835,4.29-15.088,10.675l-29.175,82.663c-0.864,2.448-0.486,5.163,1.013,7.282c1.5,2.12,3.935,3.38,6.531,3.38h300.157
	c2.597,0,5.031-1.26,6.53-3.38C413.108,258.501,413.486,255.786,412.622,253.338z"/>
<path style="fill:#787485;" d="M141.641,160c-6.771,0-12.835,4.29-15.088,10.675l-29.175,82.663
	c-0.864,2.448-0.486,5.163,1.013,7.282c1.5,2.12,3.935,3.38,6.531,3.38h123.015l31.077-104L141.641,160L141.641,160z"/>
<path style="fill:#F59F3F;" d="M399,352c-26.916,0-48,14.056-48,32s21.084,32,48,32s48-14.056,48-32S425.916,352,399,352z"/>
<path style="fill:#FCDE76;" d="M399,408c-22.056,0-40-10.767-40-24s17.944-24,40-24s40,10.767,40,24S421.056,408,399,408z"/>
<path style="fill:#FCCF6F;" d="M367,380c0-5.022,1.908-9.735,5.229-13.815C364.112,370.581,359,376.938,359,384
	c0,13.233,17.944,24,40,24c1.41,0,2.802-0.045,4.174-0.131C382.907,406.516,367,394.535,367,380z"/>
<path style="fill:#F59F3F;" d="M111,352c-26.916,0-48,14.056-48,32s21.084,32,48,32s48-14.056,48-32S137.916,352,111,352z"/>
<path style="fill:#FCDE76;" d="M111,408c-22.056,0-40-10.767-40-24s17.944-24,40-24s40,10.767,40,24S133.056,408,111,408z"/>
<path style="fill:#FCCF6F;" d="M79,380c0-5.022,1.908-9.735,5.229-13.815C76.112,370.58,71,376.938,71,384c0,13.233,17.944,24,40,24
	c1.41,0,2.802-0.045,4.174-0.131C94.907,406.516,79,394.535,79,380z"/>
<g>
	<path style="fill:#787485;" d="M111,464H47c-4.418,0-8,3.582-8,8v24c0,8.822,7.178,16,16,16h48c8.822,0,16-7.178,16-16v-24
		C119,467.582,115.418,464,111,464z"/>
	<path style="fill:#787485;" d="M463,464h-64c-4.418,0-8,3.582-8,8v24c0,8.822,7.178,16,16,16h48c8.822,0,16-7.178,16-16v-24
		C471,467.582,467.418,464,463,464z"/>
</g>
<g>
	<path style="fill:#696578;" d="M111,464H47c-4.418,0-8,3.582-8,8v15.953c6.854,5.123,15.286,8.021,24.128,8.045
		c0.488,0.001,0.977,0.002,1.465,0.002c0.477,0,0.955-0.001,1.432-0.001H119V472C119,467.582,115.418,464,111,464z"/>
	<path style="fill:#696578;" d="M463,464h-64c-4.418,0-8,3.582-8,8v23.998h56c4.823,0,9.542-0.852,14.027-2.53
		c3.626-1.358,6.97-3.226,9.973-5.495V472C471,467.582,467.418,464,463,464z"/>
</g>
<path style="fill:#D2D1D6;" d="M295,336h-80c-22.056,0-40,17.944-40,40v64c0,4.418,3.582,8,8,8h144c4.418,0,8-3.582,8-8v-64
	C335,353.944,317.056,336,295,336z"/>
<g>
	<path style="fill:#9693A0;" d="M335,376c0-2.739-0.278-5.414-0.805-8h-158.39c-0.527,2.586-0.805,5.261-0.805,8v8h160V376z"/>
	<rect x="175" y="400" style="fill:#9693A0;" width="160" height="16"/>
</g>
<g>
	<path style="fill:#D4506F;" d="M135,344H87c-4.418,0-8-3.582-8-8s3.582-8,8-8h48c4.418,0,8,3.582,8,8S139.418,344,135,344z"/>
	<path style="fill:#D4506F;" d="M423,344h-48c-4.418,0-8-3.582-8-8s3.582-8,8-8h48c4.418,0,8,3.582,8,8S427.418,344,423,344z"/>
	<path style="fill:#D4506F;" d="M484.66,434.346c-1.501-1.502-3.537-2.346-5.66-2.346H31c-4.418,0-8,3.582-8,8
		c0,8.015,2.493,16.056,7.021,22.642c7.45,10.833,19.826,17.322,33.107,17.358c0.488,0.001,0.977,0.002,1.465,0.002
		c0.477,0,0.955-0.001,1.432-0.001L447,480c4.823,0,9.542-0.852,14.027-2.53c15.518-5.812,25.955-20.866,25.973-37.462
		C487.002,437.885,486.16,435.849,484.66,434.346z"/>
</g>
<g>
	<circle style="fill:#FDFAB6;" cx="111" cy="384" r="8"/>
	<circle style="fill:#FDFAB6;" cx="399" cy="384" r="8"/>
</g>
<g>
</g>
<g>
</g>
<g>
</g>
<g>
</g>
<g>
</g>
<g>
</g>
<g>
</g>
<g>
</g>
<g>
</g>
<g>
</g>
<g>
</g>
<g>
</g>
<g>
</g>
<g>
</g>
<g>
</g>
</svg>
